<?xml version="1.0" encoding="utf-8"?>
<!-- Generator: Adobe Illustrator 28.4.1, SVG Export Plug-In . SVG Version: 6.00 Build 0)  -->
<svg version="1.0" id="katman_1" xmlns="http://www.w3.org/2000/svg" xmlns:xlink="http://www.w3.org/1999/xlink" x="0px" y="0px"
	 viewBox="0 0 841.89 595.28" style="enable-background:new 0 0 841.89 595.28;" xml:space="preserve">
<style type="text/css">
	.st0{fill-rule:evenodd;clip-rule:evenodd;fill:#FF4438;}
</style>
<g>
	<path class="st0" d="M686.05,301.56c0-23.99,17.77-37.9,39.98-37.9c16.58,0,31.39,8,38.49,27.83
		c-2.07,10.07-14.51,21.32-19.84,23.1c-4.44-9.48-9.48-15.1-14.21-15.1c-5.92,0-6.22,4.15-6.22,9.48c0,3.78,1.08,9.33,2.38,16.03
		c1.96,10.11,4.43,22.79,4.43,35.8c0,23.69-16.58,41.16-42.05,41.16c-23.32,0-36.2-15.29-41.95-39.71
		c-15.23,27.3-37.51,39.71-54.58,39.71c-26.69,0-32.97-19.73-32.34-39.74c-10.72,18.95-31.37,39.74-51.17,39.74
		c-20.21,0-27.35-17.59-25.71-38.08c-12.11,22.55-34.01,38.08-55.13,38.08c-22.91,0-34.25-18.2-30.58-40.76
		c-15.42,18.95-44.11,40.76-73.94,40.76c-34.02,0-48.82-18.34-50.58-41.33c-16.42,26.31-38.55,42.22-64.91,42.22
		c-38.05,0-51.66-33.84-53.64-61.52c-14.1,18.88-29.96,38.48-49.41,60.33c-2.07,2.07-3.85,3.26-5.92,3.26
		c-6.81,0-20.73-30.2-21.62-41.46c5.84-9.07,42.68-49.54,72.34-82.13c10.43-11.45,19.96-21.93,26.96-29.73
		c-18.16,5.48-36.89,16.41-60.51,33.39c-4.15,2.96-15.69-23.99-15.4-44.71c27.24-20.14,68.7-32.87,102.16-32.87
		c46.79,0,73.73,26.06,73.73,62.18c0,30.2-25.17,63.37-61.89,64.55c-19.09,0.5-31.33-10.22-37.59-23.46
		c0.75,20.47,11.39,45.66,39.96,45.66c31.14,0,46.1-18.8,68.4-46.83c1.45-1.82,2.93-3.68,4.45-5.58
		c18.95-23.39,40.86-44.12,72.84-44.12c19.54,0,32.87,12.14,32.87,30.5c0,22.21-26.06,53-62.48,53c-6.22,0-11.89-0.82-16.68-2.44
		c-0.12,0.93-0.2,1.85-0.2,2.74c0,10.36,3.85,16.58,20.73,16.58c24.87,0,48.27-14.81,76.69-49.45
		c27.84-34.05,48.86-48.86,71.07-48.86c14.99,0,26.37,8.13,31.38,21.81c29.76-42.99,55.01-73.45,76.4-93.76
		c21.02,8.88,36.13,26.35,31.98,29.91c-15.69,14.21-68.11,71.36-88.83,105.42c-5.33,8.88-10.36,18.66-10.36,23.39
		c0,4.44,2.66,5.92,5.63,5.92c14.23,0,42.74-33.59,67.37-62.6c9.2-10.84,17.85-21.03,25.02-28.6c16.58,6.81,33.46,21.32,29.32,26.35
		c-21.91,26.06-38.49,47.38-38.49,59.52c0,3.26,1.18,5.33,5.63,5.33c8.29,0,15.99-7.4,28.72-23.1c2.66-3.26,5.92-3.26,7.99,1.78
		c5.63,13.62,13.92,21.02,20.43,21.02c7.7,0,11.55-6.81,11.55-17.17c0-7.08-0.86-15.32-1.61-22.41
		C686.54,309.32,686.05,304.62,686.05,301.56z M208.42,297.71c15.69,0,32.87-8.59,32.87-26.06c0-10.6-6.58-20.38-24.17-23.35
		c-0.93,1.45-1.85,2.89-2.76,4.32c-8.94,13.97-17.36,27.14-25.87,40.02C193.58,295.5,200.03,297.71,208.42,297.71z M367.13,303.04
		c0-4.74-2.96-7.99-7.7-7.99c-11.88,0-29.8,16.67-38.23,32.77c3.11,1.2,6.77,1.87,10.69,1.87
		C352.92,329.69,367.13,313.7,367.13,303.04z M445.01,345.97c0,5.33,2.96,8.88,9.18,8.88c19.25,0,43.23-34.94,43.23-49.16
		c0-5.92-3.26-9.48-8.59-9.48C471.37,296.23,445.01,329.39,445.01,345.97z M692.26,239.08c-6.81,11.25-17.17,23.99-21.02,27.83
		c-17.77-7.4-34.35-22.21-31.98-26.35c6.51-11.55,17.17-23.99,21.02-27.83C678.05,220.13,694.63,235.23,692.26,239.08z"/>
</g>
</svg>
